<svg width="25" height="23" viewBox="0 0 25 23" fill="none" xmlns="http://www.w3.org/2000/svg">
<path d="M15.3027 0.606445C16.5723 0.860351 17.3975 2.0957 17.1436 3.36523L17.0312 3.92187C16.7725 5.22559 16.2939 6.46582 15.625 7.59375H22.6562C23.9502 7.59375 25 8.64355 25 9.9375C25 10.8408 24.4873 11.627 23.7354 12.0176C24.2676 12.4473 24.6094 13.1064 24.6094 13.8438C24.6094 14.9863 23.7891 15.9385 22.71 16.1436C22.9248 16.5 23.0469 16.915 23.0469 17.3594C23.0469 18.3994 22.3682 19.2832 21.4307 19.5859C21.4648 19.7471 21.4844 19.918 21.4844 20.0938C21.4844 21.3877 20.4346 22.4375 19.1406 22.4375H14.3799C13.4521 22.4375 12.5488 22.1641 11.7773 21.6514L9.89746 20.3965C8.59375 19.5273 7.8125 18.0625 7.8125 16.4951V14.625V12.2812V11.0654C7.8125 9.63965 8.46191 8.29688 9.57031 7.40332L9.93164 7.11523C11.2256 6.08008 12.1094 4.625 12.4316 3.00391L12.5439 2.44727C12.7979 1.17773 14.0332 0.352539 15.3027 0.606445ZM1.5625 8.375H4.6875C5.55176 8.375 6.25 9.07324 6.25 9.9375V20.875C6.25 21.7393 5.55176 22.4375 4.6875 22.4375H1.5625C0.698242 22.4375 0 21.7393 0 20.875V9.9375C0 9.07324 0.698242 8.375 1.5625 8.375Z" fill="black"/>
</svg>
